<?xml version="1.0" encoding="UTF-8" standalone="no"?>
<!-- Created with Inkscape (http://www.inkscape.org/) -->

<svg
   width="154.55901mm"
   height="29.766001mm"
   viewBox="0 0 154.55901 29.766001"
   version="1.1"
   id="svg1153"
   inkscape:version="1.1.2 (b8e25be833, 2022-02-05)"
   sodipodi:docname="labiblioteca_logo.svg"
   xmlns:inkscape="http://www.inkscape.org/namespaces/inkscape"
   xmlns:sodipodi="http://sodipodi.sourceforge.net/DTD/sodipodi-0.dtd"
   xmlns="http://www.w3.org/2000/svg"
   xmlns:svg="http://www.w3.org/2000/svg">
  <sodipodi:namedview
     id="namedview1155"
     pagecolor="#ffffff"
     bordercolor="#666666"
     borderopacity="1.0"
     inkscape:pageshadow="2"
     inkscape:pageopacity="0.0"
     inkscape:pagecheckerboard="0"
     inkscape:document-units="mm"
     showgrid="false"
     inkscape:zoom="0.80711279"
     inkscape:cx="-101.5967"
     inkscape:cy="-12.389842"
     inkscape:window-width="1366"
     inkscape:window-height="697"
     inkscape:window-x="-8"
     inkscape:window-y="-8"
     inkscape:window-maximized="1"
     inkscape:current-layer="layer1" />
  <defs
     id="defs1150">
    <rect
       x="-42.426407"
       y="-483.66104"
       width="526.42047"
       height="567.62653"
       id="rect2806" />
    <rect
       x="-42.426407"
       y="-483.66104"
       width="526.42047"
       height="567.62653"
       id="rect21357" />
  </defs>
  <g
     inkscape:label="Camada 1"
     inkscape:groupmode="layer"
     id="layer1">
    <g
       id="g1265"
       transform="translate(-21.064868,-49.368653)">
      <g
         aria-label="biblioteca"
         transform="matrix(0.26458333,0,0,0.26458333,62.818147,184.55579)"
         id="text2804"
         style="font-style:italic;font-weight:bold;font-size:85.3333px;line-height:0.85;font-family:'IBM Plex Serif';-inkscape-font-specification:'IBM Plex Serif Bold Italic';text-align:center;white-space:pre;shape-inside:url(#rect2806)">
        <path
           d="m 44.99776,-421.75413 q -4.949331,0 -8.362663,-2.38933 -3.327999,-2.38933 -4.522665,-5.54667 h -0.426666 l -5.973331,6.912 h -5.973331 v -55.21064 l -5.119998,-1.10934 v -4.86399 l 18.090659,-3.66934 v 26.79466 h 0.512 q 1.194666,-2.98667 4.181332,-5.29066 2.986665,-2.38934 7.594663,-2.38934 4.095998,0 7.338664,1.70667 3.327998,1.62133 5.631997,4.69333 2.303999,3.072 3.498666,7.424 1.279999,4.26666 1.279999,9.55733 0,5.29066 -1.279999,9.64266 -1.194667,4.26666 -3.498666,7.33866 -2.303999,3.072 -5.631997,4.77867 -3.242666,1.62133 -7.338664,1.62133 z m -4.351998,-7.85066 q 3.583999,0 5.973331,-2.47467 2.389332,-2.47466 2.389332,-7.25333 v -11.69066 q 0,-4.77867 -2.389332,-7.25333 -2.389332,-2.47467 -5.973331,-2.47467 -3.413332,0 -5.717331,2.13334 -2.218666,2.13333 -2.218666,5.71733 v 15.44532 q 0,3.584 2.218666,5.71733 2.303999,2.13334 5.717331,2.13334 z"
           style="font-style:normal;-inkscape-font-specification:'IBM Plex Serif Bold'"
           id="path930" />
        <path
           d="m 81.008366,-473.38077 q -3.583999,0 -5.631998,-1.96267 -1.962666,-1.96267 -1.962666,-5.29067 v -0.42666 q 0,-3.328 1.962666,-5.29067 2.047999,-1.96266 5.631998,-1.96266 3.583998,0 5.546664,1.96266 2.047999,1.96267 2.047999,5.29067 v 0.42666 q 0,3.328 -2.047999,5.29067 -1.962666,1.96267 -5.546664,1.96267 z m -11.519996,44.97064 h 5.119998 v -30.46398 l -5.119998,-1.10934 v -4.864 l 18.09066,-3.66933 v 40.10665 h 5.119997 v 5.632 H 69.48837 Z"
           style="font-style:normal;-inkscape-font-specification:'IBM Plex Serif Bold'"
           id="path932" />
        <path
           d="m 127.00293,-421.75413 q -4.94933,0 -8.36266,-2.38933 -3.328,-2.38933 -4.52267,-5.54667 h -0.42666 l -5.97333,6.912 h -5.97333 v -55.21064 l -5.120001,-1.10934 v -4.86399 l 18.090661,-3.66934 v 26.79466 h 0.512 q 1.19466,-2.98667 4.18133,-5.29066 2.98666,-2.38934 7.59466,-2.38934 4.096,0 7.33867,1.70667 3.328,1.62133 5.63199,4.69333 2.304,3.072 3.49867,7.424 1.28,4.26666 1.28,9.55733 0,5.29066 -1.28,9.64266 -1.19467,4.26666 -3.49867,7.33866 -2.30399,3.072 -5.63199,4.77867 -3.24267,1.62133 -7.33867,1.62133 z m -4.352,-7.85066 q 3.584,0 5.97334,-2.47467 2.38933,-2.47466 2.38933,-7.25333 v -11.69066 q 0,-4.77867 -2.38933,-7.25333 -2.38934,-2.47467 -5.97334,-2.47467 -3.41333,0 -5.71733,2.13334 -2.21866,2.13333 -2.21866,5.71733 v 15.44532 q 0,3.584 2.21866,5.71733 2.304,2.13334 5.71733,2.13334 z"
           style="font-style:normal;-inkscape-font-specification:'IBM Plex Serif Bold'"
           id="path934" />
        <path
           d="m 150.64021,-428.41013 h 5.11999 v -49.57864 l -5.11999,-1.10934 v -4.86399 l 18.09066,-3.66934 v 59.22131 h 5.11999 v 5.632 h -23.21065 z"
           style="font-style:normal;-inkscape-font-specification:'IBM Plex Serif Bold'"
           id="path936" />
        <path
           d="m 190.83221,-473.38077 q -3.58399,0 -5.63199,-1.96267 -1.96267,-1.96267 -1.96267,-5.29067 v -0.42666 q 0,-3.328 1.96267,-5.29067 2.048,-1.96266 5.63199,-1.96266 3.584,0 5.54667,1.96266 2.048,1.96267 2.048,5.29067 v 0.42666 q 0,3.328 -2.048,5.29067 -1.96267,1.96267 -5.54667,1.96267 z m -11.51999,44.97064 h 5.12 v -30.46398 l -5.12,-1.10934 v -4.864 l 18.09066,-3.66933 v 40.10665 h 5.12 v 5.632 h -23.21066 z"
           style="font-style:normal;-inkscape-font-specification:'IBM Plex Serif Bold'"
           id="path938" />
        <path
           d="m 229.57346,-427.89813 q 7.85066,0 7.85066,-9.38666 v -15.70133 q 0,-9.38666 -7.85066,-9.38666 -7.85067,0 -7.85067,9.38666 v 15.70133 q 0,9.38666 7.85067,9.38666 z m 0,6.144 q -4.864,0 -8.87467,-1.536 -3.92533,-1.62133 -6.82666,-4.608 -2.816,-2.98666 -4.352,-7.33866 -1.536,-4.352 -1.536,-9.89866 0,-5.54667 1.536,-9.89867 1.536,-4.35199 4.352,-7.33866 2.90133,-2.98666 6.82666,-4.52266 4.01067,-1.62134 8.87467,-1.62134 4.86399,0 8.78932,1.62134 4.01067,1.536 6.82667,4.52266 2.90133,2.98667 4.43733,7.33866 1.536,4.352 1.536,9.89867 0,5.54666 -1.536,9.89866 -1.536,4.352 -4.43733,7.33866 -2.816,2.98667 -6.82667,4.608 -3.92533,1.536 -8.78932,1.536 z"
           style="font-style:normal;-inkscape-font-specification:'IBM Plex Serif Bold'"
           id="path940" />
        <path
           d="m 272.06951,-421.9248 q -5.12,0 -7.59467,-2.21866 -2.38933,-2.304 -2.38933,-6.74133 v -30.63466 h -5.97333 v -5.97333 h 2.304 q 2.816,0 4.096,-1.19466 1.36533,-1.28 2.55999,-3.75467 l 3.584,-7.424 h 6.4 v 12.37333 h 9.81333 v 5.97333 h -9.81333 v 32.93866 h 9.81333 v 5.03466 q -1.36533,0.59733 -4.864,1.10933 -3.49866,0.512 -7.93599,0.512 z"
           style="font-style:normal;-inkscape-font-specification:'IBM Plex Serif Bold'"
           id="path942" />
        <path
           d="m 311.32276,-421.75413 q -5.29067,0 -9.38667,-1.70667 -4.01066,-1.79199 -6.82666,-4.86399 -2.73067,-3.15734 -4.18133,-7.424 -1.45067,-4.352 -1.45067,-9.472 0,-5.37599 1.45067,-9.72799 1.536,-4.352 4.26666,-7.33867 2.816,-2.98666 6.656,-4.60799 3.92533,-1.62134 8.704,-1.62134 4.77866,0 8.61866,1.45067 3.84,1.45067 6.48533,4.18133 2.73067,2.64533 4.18133,6.48533 1.45067,3.84 1.45067,8.53333 v 2.90133 h -28.07466 v 3.41334 q 0,5.71733 2.98667,8.61866 2.98666,2.90133 7.936,2.90133 4.60799,0 7.42399,-2.048 2.816,-2.13333 4.01067,-5.12 l 4.69333,2.816 q -0.768,2.13333 -2.21867,4.352 -1.45066,2.21867 -3.75466,4.096 -2.304,1.792 -5.54667,2.98666 -3.24266,1.19467 -7.42399,1.19467 z m -8.10667,-28.58665 h 14.67733 v -1.19467 q 0,-6.144 -1.96267,-8.61866 -1.96266,-2.47467 -5.37599,-2.47467 -3.41334,0 -5.376,2.47467 -1.96267,2.47466 -1.96267,8.61866 z"
           style="font-style:normal;-inkscape-font-specification:'IBM Plex Serif Bold'"
           id="path944" />
        <path
           d="m 359.6214,-421.75413 q -5.376,0 -9.47199,-1.792 -4.01067,-1.792 -6.82667,-4.94933 -2.73066,-3.15733 -4.18133,-7.424 -1.36533,-4.26666 -1.36533,-9.30133 0,-5.63199 1.792,-9.89866 1.792,-4.352 4.86399,-7.33866 3.15734,-2.98667 7.33867,-4.52267 4.26666,-1.536 9.13066,-1.536 7.85066,0 12.032,3.24267 4.26666,3.24266 4.26666,8.19199 0,3.24267 -1.792,5.20534 -1.792,1.87733 -4.94933,1.87733 -3.15733,0 -4.864,-1.62133 -1.70666,-1.70667 -1.70666,-4.43734 0,-2.21866 1.10933,-3.66933 1.19467,-1.45066 2.64533,-2.13333 v -0.512 q -0.85333,-0.256 -2.048,-0.512 -1.10933,-0.256 -3.072,-0.256 -5.20533,0 -8.10666,3.328 -2.90133,3.24266 -2.90133,9.38666 v 8.87467 q 0,5.63199 2.64533,8.61866 2.64533,2.90133 7.33866,2.90133 4.77867,0 7.59467,-2.21867 2.816,-2.21866 4.01066,-5.20533 l 4.77867,2.816 q -0.768,2.13333 -2.21867,4.43733 -1.36533,2.304 -3.584,4.18134 -2.21866,1.87733 -5.29066,3.07199 -3.072,1.19467 -7.168,1.19467 z"
           style="font-style:normal;-inkscape-font-specification:'IBM Plex Serif Bold'"
           id="path946" />
        <path
           d="m 396.57068,-421.75413 q -7.25333,0 -10.58133,-3.328 -3.24266,-3.41333 -3.24266,-9.47199 0,-13.22667 19.54132,-13.22667 h 5.97333 v -4.86399 q 0,-5.20533 -1.96266,-7.85067 -1.96267,-2.64533 -6.82667,-2.64533 -1.79199,0 -3.07199,0.256 -1.28,0.256 -2.21867,0.68267 v 0.42666 q 0.85333,0.42667 1.62133,1.536 0.85334,1.10934 0.85334,2.98667 0,2.56 -1.62134,4.352 -1.62133,1.70666 -4.86399,1.70666 -2.56,0 -4.26667,-1.792 -1.70667,-1.792 -1.70667,-4.52266 0,-2.048 1.19467,-4.01067 1.19467,-2.048 3.584,-3.584 2.38933,-1.53599 5.888,-2.47466 3.584,-0.93867 8.19199,-0.93867 9.30133,0 13.73866,4.01067 4.43734,3.92533 4.43734,11.17866 v 24.91732 h 5.11999 v 4.864 q -1.45066,0.85333 -3.75466,1.28 -2.304,0.512 -4.77867,0.512 -4.69333,0 -6.65599,-2.13333 -1.87734,-2.21867 -1.87734,-5.46133 v -0.17067 h -0.512 q -0.59733,1.45067 -1.53599,2.816 -0.85334,1.36533 -2.304,2.47466 -1.36534,1.10934 -3.41334,1.792 -2.048,0.68267 -4.94933,0.68267 z m 4.864,-7.68 q 3.15733,0 4.94933,-1.45066 1.87733,-1.45067 1.87733,-5.03467 v -6.74133 h -4.60799 q -4.096,0 -6.144,1.70667 -1.96267,1.70666 -1.96267,4.864 v 1.36533 q 0,2.73066 1.62134,4.01066 1.62133,1.28 4.26666,1.28 z"
           style="font-style:normal;-inkscape-font-specification:'IBM Plex Serif Bold'"
           id="path948" />
      </g>
      <g
         aria-label="la"
         transform="matrix(0.26458333,0,0,0.26458333,-27.766594,184.55579)"
         id="text21355"
         style="font-style:italic;font-weight:bold;font-size:85.3333px;line-height:0.85;font-family:'IBM Plex Serif';-inkscape-font-specification:'IBM Plex Serif Bold Italic';text-align:center;white-space:pre;shape-inside:url(#rect21357)">
        <path
           d="m 192.75221,-421.75413 q -2.304,0 -3.92533,-0.59733 -1.536,-0.59734 -2.47467,-1.62134 -0.93866,-1.024 -1.36533,-2.21866 -0.42667,-1.28 -0.42667,-2.56 0,-1.024 0.256,-2.38933 0.256,-1.45067 0.512,-2.38933 l 11.34933,-45.22665 h -6.912 l 1.28,-5.03467 20.13866,-3.84 -14.59199,58.36798 1.536,0.68267 7.67999,-9.728 3.072,1.792 -4.77866,7.25333 q -2.98667,4.52266 -5.97333,6.05866 -2.90134,1.45067 -5.376,1.45067 z"
           id="path951" />
        <path
           d="m 221.16824,-421.75413 q -5.376,0 -7.67999,-3.584 -2.21867,-3.584 -2.21867,-9.81333 0,-3.584 0.68267,-7.42399 0.68266,-3.92534 2.04799,-7.59467 1.36534,-3.75466 3.328,-7.08266 1.96267,-3.328 4.43733,-5.80267 2.47467,-2.55999 5.46134,-4.01066 3.07199,-1.45067 6.57066,-1.45067 3.75466,0 6.4,2.048 2.73066,1.96267 3.584,6.82667 h 1.024 l 5.54666,-7.85067 h 6.05866 l -9.55733,38.22932 1.536,0.68267 7.68,-9.728 3.072,1.792 -4.77867,7.25333 q -2.64533,4.01067 -5.29066,5.80266 -2.56,1.70667 -5.29066,1.70667 -2.13334,0 -3.584,-0.59733 -1.36534,-0.59734 -2.21867,-1.536 -0.768,-0.93867 -1.10933,-2.13333 -0.34133,-1.28 -0.34133,-2.47467 0,-1.28 0.256,-2.64533 0.256,-1.45067 0.512,-2.38933 l 0.34133,-1.36534 -1.024,-0.17066 q -1.19467,2.64533 -2.73067,5.11999 -1.45066,2.38934 -3.328,4.26667 -1.79199,1.792 -4.18133,2.90133 -2.304,1.024 -5.20533,1.024 z m 5.376,-7.85066 q 2.048,0 4.18133,-2.21867 2.21867,-2.21866 4.01067,-5.46133 1.87733,-3.24267 3.24266,-6.912 1.45067,-3.66933 2.13333,-6.57066 l 0.59734,-2.47467 q 0.93866,-4.09599 0.256,-6.48533 -0.68267,-2.38933 -3.66933,-2.38933 -2.98667,0 -5.97334,3.328 -2.90133,3.328 -5.03466,10.92266 -0.93867,3.24267 -1.62133,7.25333 -0.68267,3.92533 -0.68267,6.656 0,1.96266 0.512,3.15733 0.59733,1.19467 2.048,1.19467 z"
           id="path953" />
      </g>
      <path
         id="rect23453"
         style="fill:none;stroke:#000000;stroke-width:2.996"
         d="m 52.204907,50.866756 h 3.07426 c 3.731296,0 6.735192,3.003896 6.735192,6.735192 v 13.299411 c 0,3.731296 -3.003896,6.735192 -6.735192,6.735192 h -3.07426 c -3.731296,0 -6.735192,-3.003896 -6.735192,-6.735192 V 57.601948 c 0,-3.731296 3.003896,-6.735192 6.735192,-6.735192 z" />
    </g>
  </g>
</svg>
